<svg width="73.000000" height="48.000000" viewBox="0 0 73 48" fill="none" xmlns="http://www.w3.org/2000/svg" xmlns:xlink="http://www.w3.org/1999/xlink">
	<desc>
			Created with Pixso.
	</desc>
	<defs/>
	<g opacity="0.200000">
		<path id="Vector" d="M36.5 1.5C11.5 1.5 1.5 24 1.5 24C1.5 24 11.5 46.5 36.5 46.5C61.5 46.5 71.5 24 71.5 24C71.5 24 61.5 1.5 36.5 1.5ZM36.5 36.5C34.02 36.5 31.61 35.76 29.55 34.39C27.5 33.01 25.89 31.06 24.95 28.78C24 26.49 23.75 23.98 24.24 21.56C24.72 19.13 25.91 16.9 27.66 15.16C29.4 13.41 31.63 12.22 34.06 11.74C36.48 11.25 38.99 11.5 41.28 12.45C43.56 13.39 45.52 14.99 46.89 17.05C48.26 19.11 49 21.52 49 24C49 27.31 47.68 30.49 45.33 32.83C42.99 35.18 39.81 36.5 36.5 36.5Z" fill="#003BA4" fill-opacity="1.000000" fill-rule="nonzero"/>
	</g>
	<path id="Vector (Граница)" d="M0 24C0 24.21 0.04 24.41 0.12 24.6C1.87 28.52 4.68 32.42 8.56 36.31C12.69 40.43 17.24 43.47 22.22 45.41C26.64 47.13 31.4 48 36.5 48C41.59 48 46.35 47.13 50.77 45.41C55.75 43.47 60.3 40.43 64.43 36.31C68.31 32.42 71.12 28.52 72.87 24.6C72.95 24.41 73 24.21 73 24C73 23.78 72.95 23.58 72.87 23.39C71.12 19.47 68.31 15.57 64.43 11.68C60.3 7.56 55.75 4.52 50.77 2.58C46.35 0.86 41.59 0 36.5 0C31.4 0 26.64 0.86 22.22 2.58C17.24 4.52 12.69 7.56 8.56 11.68C4.68 15.57 1.87 19.47 0.12 23.39C0.04 23.58 0 23.78 0 24ZM3.15 24C4.76 27.37 7.27 30.77 10.68 34.18C14.52 38.02 18.75 40.83 23.37 42.63C27.44 44.21 31.81 45 36.5 45C41.18 45 45.55 44.21 49.62 42.63C54.24 40.83 58.47 38.02 62.31 34.18C65.72 30.77 68.23 27.37 69.84 24C68.23 20.62 65.72 17.22 62.31 13.81C58.47 9.97 54.24 7.16 49.62 5.36C45.55 3.78 41.18 3 36.5 3C31.81 3 27.44 3.78 23.37 5.36C18.75 7.16 14.52 9.97 10.68 13.81C7.27 17.22 4.76 20.62 3.15 24Z" fill="#003BA4" fill-opacity="1.000000" fill-rule="evenodd"/>
	<path id="Vector (Граница)" d="M31.12 36.97C32.77 37.65 34.56 38 36.5 38C38.43 38 40.22 37.65 41.87 36.97C43.52 36.29 45.03 35.26 46.39 33.89C47.76 32.53 48.79 31.02 49.47 29.37C50.15 27.72 50.5 25.93 50.5 24C50.5 22.06 50.15 20.27 49.47 18.62C48.79 16.97 47.76 15.46 46.39 14.1C45.03 12.73 43.52 11.7 41.87 11.02C40.22 10.34 38.43 10 36.5 10C34.56 10 32.77 10.34 31.12 11.02C29.47 11.7 27.96 12.73 26.6 14.1C25.23 15.46 24.2 16.97 23.52 18.62C22.84 20.27 22.5 22.06 22.5 24C22.5 25.93 22.84 27.72 23.52 29.37C24.2 31.02 25.23 32.53 26.6 33.89C27.96 35.26 29.47 36.29 31.12 36.97ZM40.72 34.19C39.42 34.73 38.01 35 36.5 35C34.98 35 33.57 34.73 32.27 34.19C30.98 33.65 29.79 32.85 28.72 31.77C27.64 30.7 26.84 29.51 26.3 28.22C25.76 26.92 25.5 25.51 25.5 24C25.5 22.48 25.76 21.07 26.3 19.77C26.84 18.48 27.64 17.29 28.72 16.22C29.79 15.14 30.98 14.34 32.27 13.8C33.57 13.26 34.98 13 36.5 13C38.01 13 39.42 13.26 40.72 13.8C42.01 14.34 43.2 15.14 44.27 16.22C45.35 17.29 46.15 18.48 46.69 19.77C47.23 21.07 47.5 22.48 47.5 24C47.5 25.51 47.23 26.92 46.69 28.22C46.15 29.51 45.35 30.7 44.27 31.77C43.2 32.85 42.01 33.65 40.72 34.19Z" fill="#003BA4" fill-opacity="1.000000" fill-rule="evenodd"/>
</svg>
