<svg width="63.023438" height="63.020447" viewBox="0 0 63.0234 63.0204" fill="none" xmlns="http://www.w3.org/2000/svg" xmlns:xlink="http://www.w3.org/1999/xlink">
	<desc>
			Created with Pixso.
	</desc>
	<defs/>
	<g opacity="0.200000">
		<path id="Vector" d="M46.43 31.5C46.43 39.79 39.72 46.5 31.43 46.5C23.15 46.5 16.43 39.79 16.43 31.5C16.43 23.22 23.15 16.5 31.43 16.5C39.72 16.5 46.43 23.22 46.43 31.5Z" fill="#003BA4" fill-opacity="1.000000" fill-rule="evenodd"/>
	</g>
	<path id="Vector (Граница)" d="M62.49 2.56L32.49 32.56C31.9 33.16 30.97 33.16 30.37 32.56C29.78 31.97 29.78 31.03 30.37 30.44L60.37 0.44C60.97 -0.15 61.9 -0.15 62.49 0.44C63.09 1.03 63.09 1.97 62.49 2.56Z" fill="#003BA4" fill-opacity="1.000000" fill-rule="evenodd"/>
	<path id="Vector (Граница)" d="M42.93 5.36C46.08 6.74 48.97 8.74 51.59 11.35C52.18 11.94 53.11 11.94 53.71 11.35C54.3 10.75 54.3 9.82 53.7 9.23C50.81 6.34 47.62 4.14 44.14 2.61C40.65 1.08 36.87 0.23 32.78 0.06C28.7 -0.1 24.86 0.43 21.26 1.66C17.66 2.9 14.3 4.83 11.18 7.47C8.06 10.1 5.59 13.09 3.77 16.44C1.95 19.78 0.79 23.48 0.27 27.53C-0.24 31.59 -0.04 35.46 0.88 39.15C1.81 42.84 3.45 46.36 5.81 49.69C8.17 53.02 10.94 55.74 14.12 57.83C17.3 59.93 20.89 61.4 24.88 62.26C28.87 63.12 32.75 63.25 36.51 62.64C40.27 62.03 43.91 60.69 47.43 58.62C50.95 56.55 53.89 54.03 56.25 51.04C58.6 48.05 60.38 44.6 61.57 40.69C62.77 36.79 63.22 32.94 62.94 29.14C62.65 25.34 61.63 21.6 59.86 17.92C59.5 17.16 58.62 16.85 57.86 17.21C57.11 17.58 56.8 18.46 57.16 19.21C58.75 22.55 59.68 25.93 59.94 29.37C60.19 32.8 59.78 36.28 58.7 39.82C57.62 43.35 56.02 46.47 53.88 49.17C51.75 51.88 49.09 54.17 45.91 56.04C42.72 57.91 39.43 59.12 36.03 59.67C32.63 60.22 29.12 60.1 25.51 59.33C21.9 58.55 18.65 57.22 15.78 55.32C12.9 53.43 10.4 50.97 8.26 47.96C6.12 44.94 4.64 41.76 3.8 38.42C2.97 35.08 2.78 31.58 3.25 27.91C3.71 24.25 4.77 20.9 6.41 17.87C8.06 14.85 10.29 12.14 13.11 9.76C15.94 7.37 18.98 5.62 22.24 4.51C25.49 3.39 28.97 2.91 32.66 3.06C36.35 3.22 39.78 3.98 42.93 5.36Z" fill="#003BA4" fill-opacity="1.000000" fill-rule="evenodd"/>
	<path id="Vector (Граница)" d="M37.17 19.26C38.56 19.91 39.83 20.81 40.98 21.96C41.57 22.55 42.51 22.55 43.1 21.95C43.69 21.36 43.69 20.43 43.1 19.83C41.69 18.43 40.14 17.33 38.44 16.53C36.75 15.74 34.91 15.26 32.93 15.08C30.95 14.9 29.05 15.04 27.24 15.52C25.43 15.99 23.71 16.8 22.07 17.93C20.43 19.06 19.07 20.38 17.98 21.91C16.89 23.43 16.08 25.15 15.55 27.07C15.01 28.98 14.81 30.87 14.95 32.74C15.09 34.61 15.57 36.45 16.38 38.26C17.2 40.08 18.26 41.66 19.56 43C20.86 44.35 22.4 45.46 24.19 46.33C25.98 47.21 27.8 47.74 29.66 47.94C31.53 48.14 33.42 48.01 35.36 47.54C37.29 47.06 39.03 46.31 40.59 45.27C42.15 44.24 43.52 42.92 44.71 41.32C45.89 39.72 46.75 38.02 47.28 36.23C47.82 34.44 48.03 32.55 47.91 30.56C47.86 29.72 47.17 29.1 46.33 29.15C45.49 29.2 44.87 29.89 44.92 30.73C45.01 32.36 44.84 33.9 44.4 35.37C43.96 36.84 43.26 38.23 42.29 39.54C41.32 40.84 40.2 41.92 38.93 42.77C37.65 43.62 36.23 44.24 34.64 44.62C33.06 45.01 31.51 45.12 29.99 44.96C28.47 44.79 26.97 44.35 25.51 43.64C24.05 42.92 22.78 42.01 21.72 40.91C20.65 39.81 19.79 38.52 19.12 37.03C18.45 35.55 18.06 34.04 17.95 32.52C17.84 30.99 18 29.44 18.44 27.87C18.88 26.31 19.54 24.9 20.43 23.65C21.32 22.41 22.43 21.32 23.77 20.4C25.11 19.47 26.52 18.81 28 18.43C29.49 18.04 31.04 17.92 32.66 18.06C34.28 18.21 35.78 18.61 37.17 19.26Z" fill="#003BA4" fill-opacity="1.000000" fill-rule="evenodd"/>
</svg>
