<svg width="149.325195" height="45.000000" viewBox="0 0 149.325 45" fill="none" xmlns="http://www.w3.org/2000/svg" xmlns:xlink="http://www.w3.org/1999/xlink">
	<desc>
			Created with Pixso.
	</desc>
	<defs/>
	<path id="Amazon" d="M18.27 26.01C17.97 26.29 17.53 26.31 17.18 26.13C15.65 24.85 15.37 24.26 14.53 23.04C11.99 25.63 10.2 26.4 6.91 26.4C3.02 26.4 0 24.01 0 19.2C0 15.45 2.03 12.9 4.92 11.65C7.43 10.54 10.93 10.35 13.61 10.04L13.61 9.45C13.61 9.33 13.61 9.22 13.61 9.1C13.62 8.98 13.62 8.86 13.62 8.74C13.62 7.82 13.56 6.85 13.05 6.1C12.49 5.25 11.41 4.9 10.46 4.9C8.7 4.9 7.13 5.8 6.74 7.67C6.66 8.09 6.36 8.5 5.94 8.52L1.46 8.04C1.12 7.96 0.75 7.71 0.75 7.24C0.75 7.19 0.76 7.13 0.77 7.07C1.8 1.63 6.71 0 11.1 0C13.35 0 16.29 0.59 18.07 2.3C19.95 4.06 20.11 6.32 20.11 8.8C20.11 9.04 20.1 9.27 20.1 9.51C20.1 9.76 20.1 10 20.1 10.25L20.1 17.45C20.1 19.61 21 20.56 21.84 21.73C22 21.95 22.09 22.19 22.09 22.41C22.09 22.62 22.01 22.81 21.83 22.96C20.89 23.75 19.21 25.21 18.29 26.03L18.27 26.01ZM78.86 26.01C78.55 26.29 78.11 26.31 77.77 26.13C76.23 24.85 75.96 24.26 75.12 23.04C72.58 25.63 70.79 26.4 67.5 26.4C63.61 26.4 60.58 24.01 60.58 19.2C60.58 15.45 62.62 12.9 65.51 11.65C68.02 10.54 71.52 10.35 74.2 10.04L74.2 9.45C74.2 9.33 74.2 9.22 74.2 9.1C74.2 8.98 74.2 8.86 74.2 8.74C74.2 7.82 74.15 6.85 73.64 6.1C73.08 5.25 72 4.9 71.05 4.9C69.29 4.9 67.71 5.8 67.33 7.67C67.25 8.09 66.95 8.5 66.53 8.52L62.04 8.04C61.71 7.96 61.34 7.71 61.34 7.24C61.34 7.19 61.34 7.13 61.36 7.07C62.39 1.63 67.3 0 71.69 0C73.94 0 76.88 0.59 78.65 2.3C80.54 4.06 80.69 6.32 80.69 8.8C80.69 9.04 80.69 9.27 80.69 9.51C80.69 9.76 80.69 10 80.69 10.25L80.69 17.45C80.69 19.61 81.58 20.56 82.43 21.73C82.58 21.95 82.68 22.19 82.68 22.41C82.68 22.62 82.6 22.81 82.42 22.96C81.47 23.75 79.8 25.21 78.87 26.03L78.86 26.01ZM30.9 26.08L26.27 26.08C25.83 26.05 25.48 25.72 25.45 25.29L25.45 1.57C25.45 1.1 25.85 0.72 26.34 0.72L30.65 0.72C31.1 0.74 31.46 1.09 31.49 1.52L31.49 4.62L31.57 4.62C32.7 1.62 34.81 0.22 37.66 0.22C40.55 0.22 42.36 1.62 43.66 4.62C44.77 1.62 47.31 0.22 50.04 0.22C51.98 0.22 54.09 1.02 55.39 2.82C56.43 4.23 56.58 6.1 56.58 7.98C56.58 8.37 56.57 8.75 56.56 9.14C56.56 9.51 56.55 9.89 56.55 10.25L56.55 25.22C56.55 25.7 56.15 26.08 55.65 26.08L51.04 26.08C50.58 26.05 50.21 25.68 50.21 25.22L50.21 12.65C50.21 12.46 50.21 12.2 50.21 11.92C50.22 11.54 50.23 11.1 50.23 10.66C50.23 9.71 50.2 8.72 50.08 8.2C49.73 6.61 48.7 6.16 47.36 6.16C46.24 6.16 45.07 6.91 44.6 8.11C44.2 9.11 44.17 10.68 44.17 11.96C44.17 12.08 44.17 12.21 44.17 12.32C44.17 12.44 44.17 12.55 44.17 12.65L44.17 25.22C44.17 25.7 43.77 26.08 43.28 26.08L38.66 26.08C38.2 26.05 37.83 25.68 37.83 25.22L37.83 12.65C37.83 12.38 37.83 12.1 37.83 11.81C37.84 11.5 37.84 11.19 37.84 10.87C37.84 8.54 37.57 6.11 34.98 6.11C31.9 6.11 31.79 9.38 31.79 12.04C31.79 12.14 31.79 12.25 31.79 12.35C31.79 12.45 31.79 12.55 31.79 12.65L31.79 25.22C31.79 25.7 31.39 26.08 30.9 26.08ZM116.31 0.22C123.17 0.22 126.88 6.11 126.88 13.6C126.88 20.83 122.78 26.57 116.31 26.57C109.58 26.57 105.91 20.68 105.91 13.35C105.91 5.96 109.63 0.22 116.31 0.22ZM135.77 26.08L131.17 26.08C130.71 26.05 130.34 25.68 130.34 25.22L130.33 1.5C130.37 1.06 130.76 0.72 131.22 0.72L135.51 0.72C135.91 0.74 136.24 1.02 136.33 1.39L136.33 5.01L136.42 5.01C137.71 1.77 139.53 0.22 142.72 0.22C144.79 0.22 146.81 0.97 148.11 3.02C149.32 4.92 149.32 8.11 149.32 10.4L149.32 25.33C149.27 25.75 148.89 26.08 148.43 26.08L143.8 26.08C143.37 26.05 143.02 25.74 142.98 25.33L142.98 12.45C142.98 12.25 142.98 12.04 142.98 11.83C142.98 11.61 142.98 11.38 142.98 11.15C142.98 8.75 142.77 6.06 140.08 6.06C138.96 6.06 137.93 6.81 137.41 7.96C136.76 9.41 136.68 10.85 136.68 12.45L136.68 25.22C136.67 25.7 136.27 26.08 135.77 26.08ZM86.31 4.91L86.31 1.52C86.31 1 86.7 0.66 87.17 0.66L102.36 0.66C102.85 0.66 103.24 1.01 103.24 1.52L103.24 4.42C103.23 4.91 102.82 5.55 102.09 6.55L94.22 17.79C97.14 17.72 100.23 18.16 102.89 19.65C103.48 19.99 103.65 20.48 103.69 20.97L103.69 24.59C103.69 25.09 103.14 25.66 102.57 25.36C97.9 22.91 91.69 22.65 86.52 25.39C86 25.68 85.45 25.1 85.45 24.61L85.45 21.17C85.45 20.62 85.45 19.68 86 18.84L95.12 5.76L87.19 5.76C86.7 5.76 86.31 5.42 86.31 4.91ZM116.35 5.07C112.95 5.07 112.73 9.71 112.73 12.6L112.73 12.71L112.73 12.82C112.73 15.8 112.78 21.69 116.31 21.69C119.9 21.69 120.06 16.69 120.06 13.65C120.06 11.65 119.98 9.26 119.38 7.36C118.86 5.71 117.82 5.07 116.35 5.07ZM13.61 14.75L13.61 13.75C10.27 13.75 6.74 14.46 6.74 18.4C6.74 20.4 7.78 21.75 9.55 21.75C10.85 21.75 12.01 20.95 12.75 19.65C13.58 18.2 13.61 16.82 13.61 15.23C13.61 15.16 13.61 15.08 13.61 15C13.61 14.91 13.61 14.83 13.61 14.75ZM74.2 14.75L74.2 13.75C70.86 13.75 67.33 14.46 67.33 18.4C67.33 20.4 68.36 21.75 70.14 21.75C71.44 21.75 72.6 20.95 73.33 19.65C74.16 18.2 74.2 16.82 74.2 15.23C74.2 15.15 74.2 15.08 74.2 15C74.2 14.91 74.2 14.83 74.2 14.75ZM96.24 31.06C95.14 29.65 88.98 30.38 86.16 30.72L86.11 30.72C85.64 30.78 85.39 30.58 85.39 30.3C85.39 30.07 85.56 29.79 85.9 29.55C90.86 26.06 99 27.07 99.95 28.24C100.14 28.48 100.25 29.03 100.25 29.78C100.25 32.62 98.73 38.38 95.04 41.47C94.45 41.96 93.88 41.83 93.88 41.32C93.88 41.21 93.91 41.09 93.96 40.95L93.96 40.95C94.82 38.81 96.53 34.53 96.53 32.25C96.53 31.73 96.45 31.32 96.24 31.06ZM92.63 35.19C83.96 41.58 71.38 45 60.55 45C45.37 45 31.7 39.38 21.35 30.04C21.11 29.82 21 29.57 21 29.35C21 28.84 21.56 28.48 22.25 28.87C33.41 35.37 47.21 39.28 61.46 39.28C71.07 39.28 81.65 37.29 91.37 33.16C92.38 32.73 93.27 33.34 93.27 34.11C93.27 34.46 93.09 34.85 92.63 35.19Z" fill="#FFFFFF" fill-opacity="1.000000" fill-rule="evenodd"/>
</svg>
