<svg width="126.270996" height="40.500000" viewBox="0 0 126.271 40.5" fill="none" xmlns="http://www.w3.org/2000/svg" xmlns:xlink="http://www.w3.org/1999/xlink">
	<desc>
			Created with Pixso.
	</desc>
	<defs/>
	<path id="Element" d="M125.41 27.7C125.29 27.7 125.17 27.75 125.08 27.82C124.99 27.89 124.92 28 124.89 28.11C123.6 31.8 121.85 34 120.41 34C119.58 34 119.25 33.08 119.25 31.63C119.25 28.02 121.42 20.35 122.51 16.85C122.63 16.48 122.7 16.11 122.71 15.72C122.71 14.71 122.16 14.21 120.78 14.21C119.3 14.21 117.7 14.79 116.15 17.51C115.61 15.12 113.99 14.07 111.72 14.07C109.1 14.07 106.57 15.75 104.48 18.49C102.4 21.22 99.94 22.12 98.11 21.67C99.44 18.43 99.93 16 99.93 14.2C99.93 11.38 98.53 9.67 96.28 9.67C92.85 9.67 90.87 12.95 90.87 16.39C90.87 19.04 92.08 21.76 94.73 23.1C92.51 28.13 89.26 32.68 88.03 32.68C86.44 32.68 85.96 24.89 86.06 19.32C86.12 16.12 86.39 15.96 86.39 15C86.39 14.44 86.03 14.06 84.58 14.06C81.21 14.06 80.17 16.91 80.01 20.19C79.96 21.44 79.76 22.67 79.43 23.87C78.02 28.9 75.11 32.71 73.23 32.71C72.35 32.71 72.11 31.84 72.11 30.69C72.11 27.07 74.14 22.55 74.14 18.7C74.14 15.86 72.89 14.07 70.55 14.07C67.79 14.07 64.14 17.35 60.69 23.51C61.83 18.8 62.29 14.24 58.93 14.24C58.2 14.25 57.48 14.43 56.84 14.78C56.62 14.88 56.44 15.04 56.32 15.25C56.2 15.45 56.14 15.69 56.16 15.93C56.48 20.94 52.12 33.78 47.98 33.78C47.23 33.78 46.86 32.96 46.86 31.65C46.86 28.03 49.02 20.38 50.11 16.87C50.24 16.49 50.31 16.09 50.32 15.69C50.32 14.73 49.73 14.24 48.38 14.24C46.91 14.24 45.3 14.8 43.76 17.52C43.22 15.12 41.59 14.07 39.32 14.07C35.6 14.07 31.47 18 29.62 23.13C27.18 29.97 22.26 36.58 15.62 36.58C9.61 36.58 6.43 31.58 6.43 23.67C6.43 12.24 14.82 2.91 21.04 2.91C24.01 2.91 25.43 4.8 25.43 7.71C25.43 11.23 23.47 12.86 23.47 14.2C23.47 14.62 23.81 15.03 24.49 15.03C27.19 15.03 30.37 11.85 30.37 7.52C30.37 3.19 26.84 0 20.62 0C10.34 0 0 10.33 0 23.59C0 34.14 5.2 40.5 14.19 40.5C20.33 40.5 25.69 35.72 28.58 30.16C28.91 34.77 31.01 37.19 34.2 37.19C37.04 37.19 39.34 35.5 41.1 32.52C41.77 35.63 43.58 37.15 45.9 37.15C48.57 37.15 50.81 35.46 52.93 32.32C52.89 34.8 53.46 37.11 55.6 37.11C56.61 37.11 57.82 36.87 58.03 35.99C60.28 26.67 65.85 19.06 67.54 19.06C68.04 19.06 68.18 19.55 68.18 20.13C68.18 22.66 66.4 27.85 66.4 31.16C66.4 34.74 67.92 37.11 71.07 37.11C74.55 37.11 78.1 32.85 80.46 26.61C81.2 32.44 82.79 37.14 85.29 37.14C88.36 37.14 93.81 30.68 97.12 23.84C98.91 24.1 100.73 23.68 102.22 22.64C101.41 24.68 100.98 26.86 100.96 29.06C100.96 35.41 103.99 37.19 106.6 37.19C109.44 37.19 111.74 35.5 113.5 32.52C114.08 35.2 115.57 37.15 118.29 37.15C122.56 37.15 126.27 32.78 126.27 29.2C126.28 28.26 125.88 27.7 125.41 27.7ZM36.81 33.67C35.09 33.67 34.41 31.94 34.41 29.35C34.41 24.85 37.49 17.36 40.74 17.36C42.16 17.36 42.69 19.01 42.69 21.08C42.69 25.63 39.77 33.67 36.81 33.67ZM95.85 20.26C94.9 19 94.4 17.46 94.45 15.88C94.45 14.05 95.12 12.5 95.93 12.5C96.73 12.5 96.98 13.29 96.98 14.39C96.97 16.23 96.31 18.91 95.85 20.26ZM109.22 33.67C107.5 33.67 106.82 31.68 106.82 29.35C106.82 25.01 109.9 17.36 113.18 17.36C114.6 17.36 115.1 19.01 115.1 21.08C115.1 25.63 112.23 33.67 109.22 33.67Z" fill="#FFFFFF" fill-opacity="1.000000" fill-rule="nonzero"/>
	<path id="Element" d="M125.41 27.7C125.29 27.7 125.17 27.75 125.08 27.82C124.99 27.89 124.92 28 124.89 28.11C123.6 31.8 121.85 34 120.41 34C119.58 34 119.25 33.08 119.25 31.63C119.25 28.02 121.42 20.35 122.51 16.85C122.63 16.48 122.7 16.11 122.71 15.72C122.71 14.71 122.16 14.21 120.78 14.21C119.3 14.21 117.7 14.79 116.15 17.51C115.61 15.12 113.99 14.07 111.72 14.07C109.1 14.07 106.57 15.75 104.48 18.49C102.4 21.22 99.94 22.12 98.11 21.67C99.44 18.43 99.93 16 99.93 14.2C99.93 11.38 98.53 9.67 96.28 9.67C92.85 9.67 90.87 12.95 90.87 16.39C90.87 19.04 92.08 21.76 94.73 23.1C92.51 28.13 89.26 32.68 88.03 32.68C86.44 32.68 85.96 24.89 86.06 19.32C86.12 16.12 86.39 15.96 86.39 15C86.39 14.44 86.03 14.06 84.58 14.06C81.21 14.06 80.17 16.91 80.01 20.19C79.96 21.44 79.76 22.67 79.43 23.87C78.02 28.9 75.11 32.71 73.23 32.71C72.35 32.71 72.11 31.84 72.11 30.69C72.11 27.07 74.14 22.55 74.14 18.7C74.14 15.86 72.89 14.07 70.55 14.07C67.79 14.07 64.14 17.35 60.69 23.51C61.83 18.8 62.29 14.24 58.93 14.24C58.2 14.25 57.48 14.43 56.84 14.78C56.62 14.88 56.44 15.04 56.32 15.25C56.2 15.45 56.14 15.69 56.16 15.93C56.48 20.94 52.12 33.78 47.98 33.78C47.23 33.78 46.86 32.96 46.86 31.65C46.86 28.03 49.02 20.38 50.11 16.87C50.24 16.49 50.31 16.09 50.32 15.69C50.32 14.73 49.73 14.24 48.38 14.24C46.91 14.24 45.3 14.8 43.76 17.52C43.22 15.12 41.59 14.07 39.32 14.07C35.6 14.07 31.47 18 29.62 23.13C27.18 29.97 22.26 36.58 15.62 36.58C9.61 36.58 6.43 31.58 6.43 23.67C6.43 12.24 14.82 2.91 21.04 2.91C24.01 2.91 25.43 4.8 25.43 7.71C25.43 11.23 23.47 12.86 23.47 14.2C23.47 14.62 23.81 15.03 24.49 15.03C27.19 15.03 30.37 11.85 30.37 7.52C30.37 3.19 26.84 0 20.62 0C10.34 0 0 10.33 0 23.59C0 34.14 5.2 40.5 14.19 40.5C20.33 40.5 25.69 35.72 28.58 30.16C28.91 34.77 31.01 37.19 34.2 37.19C37.04 37.19 39.34 35.5 41.1 32.52C41.77 35.63 43.58 37.15 45.9 37.15C48.57 37.15 50.81 35.46 52.93 32.32C52.89 34.8 53.46 37.11 55.6 37.11C56.61 37.11 57.82 36.87 58.03 35.99C60.28 26.67 65.85 19.06 67.54 19.06C68.04 19.06 68.18 19.55 68.18 20.13C68.18 22.66 66.4 27.85 66.4 31.16C66.4 34.74 67.92 37.11 71.07 37.11C74.55 37.11 78.1 32.85 80.46 26.61C81.2 32.44 82.79 37.14 85.29 37.14C88.36 37.14 93.81 30.68 97.12 23.84C98.91 24.1 100.73 23.68 102.22 22.64C101.41 24.68 100.98 26.86 100.96 29.06C100.96 35.41 103.99 37.19 106.6 37.19C109.44 37.19 111.74 35.5 113.5 32.52C114.08 35.2 115.57 37.15 118.29 37.15C122.56 37.15 126.27 32.78 126.27 29.2C126.28 28.26 125.88 27.7 125.41 27.7ZM36.81 33.67C35.09 33.67 34.41 31.94 34.41 29.35C34.41 24.85 37.49 17.36 40.74 17.36C42.16 17.36 42.69 19.01 42.69 21.08C42.69 25.63 39.77 33.67 36.81 33.67ZM95.85 20.26C94.9 19 94.4 17.46 94.45 15.88C94.45 14.05 95.12 12.5 95.93 12.5C96.73 12.5 96.98 13.29 96.98 14.39C96.97 16.23 96.31 18.91 95.85 20.26ZM109.22 33.67C107.5 33.67 106.82 31.68 106.82 29.35C106.82 25.01 109.9 17.36 113.18 17.36C114.6 17.36 115.1 19.01 115.1 21.08C115.1 25.63 112.23 33.67 109.22 33.67Z" fill="#FFFFFF" fill-opacity="1.000000" fill-rule="nonzero"/>
	<path id="Element" d="M125.41 27.7C125.29 27.7 125.17 27.75 125.08 27.82C124.99 27.89 124.92 28 124.89 28.11C123.6 31.8 121.85 34 120.41 34C119.58 34 119.25 33.08 119.25 31.63C119.25 28.02 121.42 20.35 122.51 16.85C122.63 16.48 122.7 16.11 122.71 15.72C122.71 14.71 122.16 14.21 120.78 14.21C119.3 14.21 117.7 14.79 116.15 17.51C115.61 15.12 113.99 14.07 111.72 14.07C109.1 14.07 106.57 15.75 104.48 18.49C102.4 21.22 99.94 22.12 98.11 21.67C99.44 18.43 99.93 16 99.93 14.2C99.93 11.38 98.53 9.67 96.28 9.67C92.85 9.67 90.87 12.95 90.87 16.39C90.87 19.04 92.08 21.76 94.73 23.1C92.51 28.13 89.26 32.68 88.03 32.68C86.44 32.68 85.96 24.89 86.06 19.32C86.12 16.12 86.39 15.96 86.39 15C86.39 14.44 86.03 14.06 84.58 14.06C81.21 14.06 80.17 16.91 80.01 20.19C79.96 21.44 79.76 22.67 79.43 23.87C78.02 28.9 75.11 32.71 73.23 32.71C72.35 32.71 72.11 31.84 72.11 30.69C72.11 27.07 74.14 22.55 74.14 18.7C74.14 15.86 72.89 14.07 70.55 14.07C67.79 14.07 64.14 17.35 60.69 23.51C61.83 18.8 62.29 14.24 58.93 14.24C58.2 14.25 57.48 14.43 56.84 14.78C56.62 14.88 56.44 15.04 56.32 15.25C56.2 15.45 56.14 15.69 56.16 15.93C56.48 20.94 52.12 33.78 47.98 33.78C47.23 33.78 46.86 32.96 46.86 31.65C46.86 28.03 49.02 20.38 50.11 16.87C50.24 16.49 50.31 16.09 50.32 15.69C50.32 14.73 49.73 14.24 48.38 14.24C46.91 14.24 45.3 14.8 43.76 17.52C43.22 15.12 41.59 14.07 39.32 14.07C35.6 14.07 31.47 18 29.62 23.13C27.18 29.97 22.26 36.58 15.62 36.58C9.61 36.58 6.43 31.58 6.43 23.67C6.43 12.24 14.82 2.91 21.04 2.91C24.01 2.91 25.43 4.8 25.43 7.71C25.43 11.23 23.47 12.86 23.47 14.2C23.47 14.62 23.81 15.03 24.49 15.03C27.19 15.03 30.37 11.85 30.37 7.52C30.37 3.19 26.84 0 20.62 0C10.34 0 0 10.33 0 23.59C0 34.14 5.2 40.5 14.19 40.5C20.33 40.5 25.69 35.72 28.58 30.16C28.91 34.77 31.01 37.19 34.2 37.19C37.04 37.19 39.34 35.5 41.1 32.52C41.77 35.63 43.58 37.15 45.9 37.15C48.57 37.15 50.81 35.46 52.93 32.32C52.89 34.8 53.46 37.11 55.6 37.11C56.61 37.11 57.82 36.87 58.03 35.99C60.28 26.67 65.85 19.06 67.54 19.06C68.04 19.06 68.18 19.55 68.18 20.13C68.18 22.66 66.4 27.85 66.4 31.16C66.4 34.74 67.92 37.11 71.07 37.11C74.55 37.11 78.1 32.85 80.46 26.61C81.2 32.44 82.79 37.14 85.29 37.14C88.36 37.14 93.81 30.68 97.12 23.84C98.91 24.1 100.73 23.68 102.22 22.64C101.41 24.68 100.98 26.86 100.96 29.06C100.96 35.41 103.99 37.19 106.6 37.19C109.44 37.19 111.74 35.5 113.5 32.52C114.08 35.2 115.57 37.15 118.29 37.15C122.56 37.15 126.27 32.78 126.27 29.2C126.28 28.26 125.88 27.7 125.41 27.7ZM36.81 33.67C35.09 33.67 34.41 31.94 34.41 29.35C34.41 24.85 37.49 17.36 40.74 17.36C42.16 17.36 42.69 19.01 42.69 21.08C42.69 25.63 39.77 33.67 36.81 33.67ZM95.85 20.26C94.9 19 94.4 17.46 94.45 15.88C94.45 14.05 95.12 12.5 95.93 12.5C96.73 12.5 96.98 13.29 96.98 14.39C96.97 16.23 96.31 18.91 95.85 20.26ZM109.22 33.67C107.5 33.67 106.82 31.68 106.82 29.35C106.82 25.01 109.9 17.36 113.18 17.36C114.6 17.36 115.1 19.01 115.1 21.08C115.1 25.63 112.23 33.67 109.22 33.67Z" fill="#FFFFFF" fill-opacity="1.000000" fill-rule="nonzero"/>
	<path id="Element" d="M125.41 27.7C125.29 27.7 125.17 27.75 125.08 27.82C124.99 27.89 124.92 28 124.89 28.11C123.6 31.8 121.85 34 120.41 34C119.58 34 119.25 33.08 119.25 31.63C119.25 28.02 121.42 20.35 122.51 16.85C122.63 16.48 122.7 16.11 122.71 15.72C122.71 14.71 122.16 14.21 120.78 14.21C119.3 14.21 117.7 14.79 116.15 17.51C115.61 15.12 113.99 14.07 111.72 14.07C109.1 14.07 106.57 15.75 104.48 18.49C102.4 21.22 99.94 22.12 98.11 21.67C99.44 18.43 99.93 16 99.93 14.2C99.93 11.38 98.53 9.67 96.28 9.67C92.85 9.67 90.87 12.95 90.87 16.39C90.87 19.04 92.08 21.76 94.73 23.1C92.51 28.13 89.26 32.68 88.03 32.68C86.44 32.68 85.96 24.89 86.06 19.32C86.12 16.12 86.39 15.96 86.39 15C86.39 14.44 86.03 14.06 84.58 14.06C81.21 14.06 80.17 16.91 80.01 20.19C79.96 21.44 79.76 22.67 79.43 23.87C78.02 28.9 75.11 32.71 73.23 32.71C72.35 32.71 72.11 31.84 72.11 30.69C72.11 27.07 74.14 22.55 74.14 18.7C74.14 15.86 72.89 14.07 70.55 14.07C67.79 14.07 64.14 17.35 60.69 23.51C61.83 18.8 62.29 14.24 58.93 14.24C58.2 14.25 57.48 14.43 56.84 14.78C56.62 14.88 56.44 15.04 56.32 15.25C56.2 15.45 56.14 15.69 56.16 15.93C56.48 20.94 52.12 33.78 47.98 33.78C47.23 33.78 46.86 32.96 46.86 31.65C46.86 28.03 49.02 20.38 50.11 16.87C50.24 16.49 50.31 16.09 50.32 15.69C50.32 14.73 49.73 14.24 48.38 14.24C46.91 14.24 45.3 14.8 43.76 17.52C43.22 15.12 41.59 14.07 39.32 14.07C35.6 14.07 31.47 18 29.62 23.13C27.18 29.97 22.26 36.58 15.62 36.58C9.61 36.58 6.43 31.58 6.43 23.67C6.43 12.24 14.82 2.91 21.04 2.91C24.01 2.91 25.43 4.8 25.43 7.71C25.43 11.23 23.47 12.86 23.47 14.2C23.47 14.62 23.81 15.03 24.49 15.03C27.19 15.03 30.37 11.85 30.37 7.52C30.37 3.19 26.84 0 20.62 0C10.34 0 0 10.33 0 23.59C0 34.14 5.2 40.5 14.19 40.5C20.33 40.5 25.69 35.72 28.58 30.16C28.91 34.77 31.01 37.19 34.2 37.19C37.04 37.19 39.34 35.5 41.1 32.52C41.77 35.63 43.58 37.15 45.9 37.15C48.57 37.15 50.81 35.46 52.93 32.32C52.89 34.8 53.46 37.11 55.6 37.11C56.61 37.11 57.82 36.87 58.03 35.99C60.28 26.67 65.85 19.06 67.54 19.06C68.04 19.06 68.18 19.55 68.18 20.13C68.18 22.66 66.4 27.85 66.4 31.16C66.4 34.74 67.92 37.11 71.07 37.11C74.55 37.11 78.1 32.85 80.46 26.61C81.2 32.44 82.79 37.14 85.29 37.14C88.36 37.14 93.81 30.68 97.12 23.84C98.91 24.1 100.73 23.68 102.22 22.64C101.41 24.68 100.98 26.86 100.96 29.06C100.96 35.41 103.99 37.19 106.6 37.19C109.44 37.19 111.74 35.5 113.5 32.52C114.08 35.2 115.57 37.15 118.29 37.15C122.56 37.15 126.27 32.78 126.27 29.2C126.28 28.26 125.88 27.7 125.41 27.7ZM36.81 33.67C35.09 33.67 34.41 31.94 34.41 29.35C34.41 24.85 37.49 17.36 40.74 17.36C42.16 17.36 42.69 19.01 42.69 21.08C42.69 25.63 39.77 33.67 36.81 33.67ZM95.85 20.26C94.9 19 94.4 17.46 94.45 15.88C94.45 14.05 95.12 12.5 95.93 12.5C96.73 12.5 96.98 13.29 96.98 14.39C96.97 16.23 96.31 18.91 95.85 20.26ZM109.22 33.67C107.5 33.67 106.82 31.68 106.82 29.35C106.82 25.01 109.9 17.36 113.18 17.36C114.6 17.36 115.1 19.01 115.1 21.08C115.1 25.63 112.23 33.67 109.22 33.67Z" fill="#FFFFFF" fill-opacity="1.000000" fill-rule="nonzero"/>
	<path id="Element" d="M125.41 27.7C125.29 27.7 125.17 27.75 125.08 27.82C124.99 27.89 124.92 28 124.89 28.11C123.6 31.8 121.85 34 120.41 34C119.58 34 119.25 33.08 119.25 31.63C119.25 28.02 121.42 20.35 122.51 16.85C122.63 16.48 122.7 16.11 122.71 15.72C122.71 14.71 122.16 14.21 120.78 14.21C119.3 14.21 117.7 14.79 116.15 17.51C115.61 15.12 113.99 14.07 111.72 14.07C109.1 14.07 106.57 15.75 104.48 18.49C102.4 21.22 99.94 22.12 98.11 21.67C99.44 18.43 99.93 16 99.93 14.2C99.93 11.38 98.53 9.67 96.28 9.67C92.85 9.67 90.87 12.95 90.87 16.39C90.87 19.04 92.08 21.76 94.73 23.1C92.51 28.13 89.26 32.68 88.03 32.68C86.44 32.68 85.96 24.89 86.06 19.32C86.12 16.12 86.39 15.96 86.39 15C86.39 14.44 86.03 14.06 84.58 14.06C81.21 14.06 80.17 16.91 80.01 20.19C79.96 21.44 79.76 22.67 79.43 23.87C78.02 28.9 75.11 32.71 73.23 32.71C72.35 32.71 72.11 31.84 72.11 30.69C72.11 27.07 74.14 22.55 74.14 18.7C74.14 15.86 72.89 14.07 70.55 14.07C67.79 14.07 64.14 17.35 60.69 23.51C61.83 18.8 62.29 14.24 58.93 14.24C58.2 14.25 57.48 14.43 56.84 14.78C56.62 14.88 56.44 15.04 56.32 15.25C56.2 15.45 56.14 15.69 56.16 15.93C56.48 20.94 52.12 33.78 47.98 33.78C47.23 33.78 46.86 32.96 46.86 31.65C46.86 28.03 49.02 20.38 50.11 16.87C50.24 16.49 50.31 16.09 50.32 15.69C50.32 14.73 49.73 14.24 48.38 14.24C46.91 14.24 45.3 14.8 43.76 17.52C43.22 15.12 41.59 14.07 39.32 14.07C35.6 14.07 31.47 18 29.62 23.13C27.18 29.97 22.26 36.58 15.62 36.58C9.61 36.58 6.43 31.58 6.43 23.67C6.43 12.24 14.82 2.91 21.04 2.91C24.01 2.91 25.43 4.8 25.43 7.71C25.43 11.23 23.47 12.86 23.47 14.2C23.47 14.62 23.81 15.03 24.49 15.03C27.19 15.03 30.37 11.85 30.37 7.52C30.37 3.19 26.84 0 20.62 0C10.34 0 0 10.33 0 23.59C0 34.14 5.2 40.5 14.19 40.5C20.33 40.5 25.69 35.72 28.58 30.16C28.91 34.77 31.01 37.19 34.2 37.19C37.04 37.19 39.34 35.5 41.1 32.52C41.77 35.63 43.58 37.15 45.9 37.15C48.57 37.15 50.81 35.46 52.93 32.32C52.89 34.8 53.46 37.11 55.6 37.11C56.61 37.11 57.82 36.87 58.03 35.99C60.28 26.67 65.85 19.06 67.54 19.06C68.04 19.06 68.18 19.55 68.18 20.13C68.18 22.66 66.4 27.85 66.4 31.16C66.4 34.74 67.92 37.11 71.07 37.11C74.55 37.11 78.1 32.85 80.46 26.61C81.2 32.44 82.79 37.14 85.29 37.14C88.36 37.14 93.81 30.68 97.12 23.84C98.91 24.1 100.73 23.68 102.22 22.64C101.41 24.68 100.98 26.86 100.96 29.06C100.96 35.41 103.99 37.19 106.6 37.19C109.44 37.19 111.74 35.5 113.5 32.52C114.08 35.2 115.57 37.15 118.29 37.15C122.56 37.15 126.27 32.78 126.27 29.2C126.28 28.26 125.88 27.7 125.41 27.7ZM36.81 33.67C35.09 33.67 34.41 31.94 34.41 29.35C34.41 24.85 37.49 17.36 40.74 17.36C42.16 17.36 42.69 19.01 42.69 21.08C42.69 25.63 39.77 33.67 36.81 33.67ZM95.85 20.26C94.9 19 94.4 17.46 94.45 15.88C94.45 14.05 95.12 12.5 95.93 12.5C96.73 12.5 96.98 13.29 96.98 14.39C96.97 16.23 96.31 18.91 95.85 20.26ZM109.22 33.67C107.5 33.67 106.82 31.68 106.82 29.35C106.82 25.01 109.9 17.36 113.18 17.36C114.6 17.36 115.1 19.01 115.1 21.08C115.1 25.63 112.23 33.67 109.22 33.67Z" fill="#FFFFFF" fill-opacity="1.000000" fill-rule="nonzero"/>
	<path id="Element" d="M125.41 27.7C125.29 27.7 125.17 27.75 125.08 27.82C124.99 27.89 124.92 28 124.89 28.11C123.6 31.8 121.85 34 120.41 34C119.58 34 119.25 33.08 119.25 31.63C119.25 28.02 121.42 20.35 122.51 16.85C122.63 16.48 122.7 16.11 122.71 15.72C122.71 14.71 122.16 14.21 120.78 14.21C119.3 14.21 117.7 14.79 116.15 17.51C115.61 15.12 113.99 14.07 111.72 14.07C109.1 14.07 106.57 15.75 104.48 18.49C102.4 21.22 99.94 22.12 98.11 21.67C99.44 18.43 99.93 16 99.93 14.2C99.93 11.38 98.53 9.67 96.28 9.67C92.85 9.67 90.87 12.95 90.87 16.39C90.87 19.04 92.08 21.76 94.73 23.1C92.51 28.13 89.26 32.68 88.03 32.68C86.44 32.68 85.96 24.89 86.06 19.32C86.12 16.12 86.39 15.96 86.39 15C86.39 14.44 86.03 14.06 84.58 14.06C81.21 14.06 80.17 16.91 80.01 20.19C79.96 21.44 79.76 22.67 79.43 23.87C78.02 28.9 75.11 32.71 73.23 32.71C72.35 32.71 72.11 31.84 72.11 30.69C72.11 27.07 74.14 22.55 74.14 18.7C74.14 15.86 72.89 14.07 70.55 14.07C67.79 14.07 64.14 17.35 60.69 23.51C61.83 18.8 62.29 14.24 58.93 14.24C58.2 14.25 57.48 14.43 56.84 14.78C56.62 14.88 56.44 15.04 56.32 15.25C56.2 15.45 56.14 15.69 56.16 15.93C56.48 20.94 52.12 33.78 47.98 33.78C47.23 33.78 46.86 32.96 46.86 31.65C46.86 28.03 49.02 20.38 50.11 16.87C50.24 16.49 50.31 16.09 50.32 15.69C50.32 14.73 49.73 14.24 48.38 14.24C46.91 14.24 45.3 14.8 43.76 17.52C43.22 15.12 41.59 14.07 39.32 14.07C35.6 14.07 31.47 18 29.62 23.13C27.18 29.97 22.26 36.58 15.62 36.58C9.61 36.58 6.43 31.58 6.43 23.67C6.43 12.24 14.82 2.91 21.04 2.91C24.01 2.91 25.43 4.8 25.43 7.71C25.43 11.23 23.47 12.86 23.47 14.2C23.47 14.62 23.81 15.03 24.49 15.03C27.19 15.03 30.37 11.85 30.37 7.52C30.37 3.19 26.84 0 20.62 0C10.34 0 0 10.33 0 23.59C0 34.14 5.2 40.5 14.19 40.5C20.33 40.5 25.69 35.72 28.58 30.16C28.91 34.77 31.01 37.19 34.2 37.19C37.04 37.19 39.34 35.5 41.1 32.52C41.77 35.63 43.58 37.15 45.9 37.15C48.57 37.15 50.81 35.46 52.93 32.32C52.89 34.8 53.46 37.11 55.6 37.11C56.61 37.11 57.82 36.87 58.03 35.99C60.28 26.67 65.85 19.06 67.54 19.06C68.04 19.06 68.18 19.55 68.18 20.13C68.18 22.66 66.4 27.85 66.4 31.16C66.4 34.74 67.92 37.11 71.07 37.11C74.55 37.11 78.1 32.85 80.46 26.61C81.2 32.44 82.79 37.14 85.29 37.14C88.36 37.14 93.81 30.68 97.12 23.84C98.91 24.1 100.73 23.68 102.22 22.64C101.41 24.68 100.98 26.86 100.96 29.06C100.96 35.41 103.99 37.19 106.6 37.19C109.44 37.19 111.74 35.5 113.5 32.52C114.08 35.2 115.57 37.15 118.29 37.15C122.56 37.15 126.27 32.78 126.27 29.2C126.28 28.26 125.88 27.7 125.41 27.7ZM36.81 33.67C35.09 33.67 34.41 31.94 34.41 29.35C34.41 24.85 37.49 17.36 40.74 17.36C42.16 17.36 42.69 19.01 42.69 21.08C42.69 25.63 39.77 33.67 36.81 33.67ZM95.85 20.26C94.9 19 94.4 17.46 94.45 15.88C94.45 14.05 95.12 12.5 95.93 12.5C96.73 12.5 96.98 13.29 96.98 14.39C96.97 16.23 96.31 18.91 95.85 20.26ZM109.22 33.67C107.5 33.67 106.82 31.68 106.82 29.35C106.82 25.01 109.9 17.36 113.18 17.36C114.6 17.36 115.1 19.01 115.1 21.08C115.1 25.63 112.23 33.67 109.22 33.67Z" fill="#FFFFFF" fill-opacity="1.000000" fill-rule="nonzero"/>
</svg>
