<svg width="131.890137" height="43.415771" viewBox="0 0 131.89 43.4158" fill="none" xmlns="http://www.w3.org/2000/svg" xmlns:xlink="http://www.w3.org/1999/xlink">
	<desc>
			Created with Pixso.
	</desc>
	<defs/>
	<path id="Google Logotype" d="M17.08 15.42L17.08 20.02L28.08 20.02C27.74 22.55 26.89 24.41 25.59 25.71C23.98 27.32 21.48 29.08 17.08 29.08C10.3 29.08 5 23.62 5 16.84C5 10.06 10.3 4.6 17.08 4.6C20.74 4.6 23.41 6.04 25.38 7.88L28.63 4.64C25.88 2.01 22.22 0 17.08 0C7.8 0 0 7.56 0 16.84C0 26.12 7.8 33.69 17.08 33.69C22.09 33.69 25.87 32.04 28.83 28.96C31.88 25.92 32.82 21.65 32.82 18.2C32.82 17.17 32.74 16.22 32.59 15.42L17.08 15.42ZM109.87 33.03L109.87 1.23L105.23 1.23L105.23 33.03L109.87 33.03ZM127.98 26.41L131.68 28.88C130.49 30.64 127.61 33.69 122.64 33.69C116.48 33.69 111.88 28.92 111.88 22.84C111.88 16.39 116.52 11.99 122.11 11.99C127.74 11.99 130.49 16.47 131.39 18.89L131.89 20.12L117.38 26.13C118.49 28.31 120.22 29.42 122.64 29.42C125.07 29.42 126.75 28.22 127.98 26.41ZM56.44 22.84C56.44 29.09 51.55 33.69 45.55 33.69C39.56 33.69 34.67 29.09 34.67 22.84C34.67 16.55 39.56 11.99 45.55 11.99C51.55 11.99 56.44 16.55 56.44 22.84ZM69.03 33.69C75.03 33.69 79.92 29.09 79.92 22.84C79.92 16.55 75.03 11.99 69.03 11.99C63.04 11.99 58.15 16.56 58.15 22.84C58.15 29.09 63.04 33.69 69.03 33.69ZM102.41 12.65L102.41 32.13C102.41 40.14 97.69 43.41 92.1 43.41C86.85 43.41 83.68 39.89 82.49 37.02L86.63 35.29C87.37 37.06 89.18 39.14 92.1 39.14C95.67 39.14 97.89 36.93 97.89 32.78L97.89 31.22L97.72 31.22C96.66 32.54 94.6 33.69 92.01 33.69C86.59 33.69 81.62 28.96 81.62 22.88C81.62 16.76 86.59 11.99 92.01 11.99C94.6 11.99 96.65 13.14 97.72 14.42L97.89 14.42L97.89 12.65L102.41 12.65ZM116.6 22.51L126.29 18.48C125.76 17.13 124.16 16.19 122.27 16.19C119.85 16.19 116.48 18.32 116.6 22.51ZM51.67 22.84C51.67 18.94 48.84 16.27 45.55 16.27C42.27 16.27 39.43 18.94 39.43 22.84C39.43 26.71 42.27 29.42 45.55 29.42C48.84 29.42 51.67 26.7 51.67 22.84ZM69.03 16.27C72.32 16.27 75.15 18.94 75.15 22.84C75.15 26.7 72.32 29.42 69.03 29.42C65.75 29.42 62.91 26.71 62.91 22.84C62.91 18.94 65.75 16.27 69.03 16.27ZM98.23 22.88C98.23 19.06 95.68 16.27 92.44 16.27C89.15 16.27 86.39 19.06 86.39 22.88C86.39 26.66 89.15 29.42 92.44 29.42C95.68 29.42 98.23 26.66 98.23 22.88Z" fill="#FFFFFF" fill-opacity="1.000000" fill-rule="evenodd"/>
</svg>
