<svg width="164.812012" height="37.500000" viewBox="0 0 164.812 37.5" fill="none" xmlns="http://www.w3.org/2000/svg" xmlns:xlink="http://www.w3.org/1999/xlink">
	<desc>
			Created with Pixso.
	</desc>
	<defs/>
	<path id="Element" d="M55.89 24.79L55.86 24.37L55.43 24.37L52.8 24.37L52.32 24.37L52.34 24.84C52.56 30.15 56.14 33.67 62.5 33.67C68.58 33.67 72.71 30.51 72.71 25.74C72.71 23.16 71.81 21.33 70.1 20.08C68.79 19.12 67.22 18.58 64.62 18.02C64.44 17.98 64.26 17.94 64.04 17.89C63.91 17.87 63.45 17.77 63.48 17.78C58.75 16.78 57.25 15.92 57.25 13.36C57.25 10.71 59.42 9.02 63.05 9.02C66.59 9.02 68.83 11.18 68.93 14.58L68.95 15.03L69.39 15.03L71.99 15.03L72.46 15.03L72.45 14.56C72.33 9.25 68.77 5.69 63.02 5.69C57.38 5.69 53.66 9.08 53.66 13.47C53.66 16.04 54.55 17.84 56.26 19.03C57.57 19.95 59.07 20.43 61.74 20.97C61.86 20.99 61.99 21.02 62.15 21.05C62.24 21.07 62.35 21.09 62.55 21.13C65.07 21.63 66.18 21.94 67.2 22.53C68.45 23.26 69.08 24.3 69.08 25.92C69.08 28.73 66.72 30.34 62.58 30.34C58.62 30.34 56.16 28.35 55.89 24.79ZM80.12 5.23L80.12 4.77L79.66 4.77L77.06 4.77L76.61 4.77L76.61 5.23L76.61 32.7L76.61 33.16L77.06 33.16L79.66 33.16L80.12 33.16L80.12 32.7L80.12 27.8L83.82 24.2L90.43 32.97L90.57 33.16L90.8 33.16L94.02 33.16L94.95 33.16L94.39 32.42L86.31 21.79L93.76 14.38L94.55 13.6L93.44 13.6L89.96 13.6L89.77 13.6L89.63 13.73L80.12 23.31L80.12 5.23ZM112.98 24.59L113.41 24.59L113.44 24.16C113.44 24.08 113.45 23.96 113.45 23.81C113.46 23.69 113.46 23.57 113.47 23.46C113.47 23.34 113.47 23.23 113.47 23.14C113.47 17.39 109.67 13.16 104.04 13.16C98.43 13.16 94.43 17.66 94.43 23.36C94.43 29.22 98.24 33.6 104.08 33.6C108.49 33.6 111.89 30.98 113.12 27.01L113.31 26.42L112.69 26.42L109.97 26.42L109.65 26.42L109.54 26.72C108.77 28.89 106.69 30.34 104.11 30.34C100.75 30.34 98.41 28.03 97.99 24.59L112.98 24.59ZM98.09 21.55C98.69 18.46 100.95 16.42 104.04 16.42C107.22 16.42 109.42 18.4 109.9 21.55L98.09 21.55ZM125.01 16.71L125.47 16.71L125.47 16.25L125.47 14.05L125.47 13.6L125.01 13.6L121.18 13.6L121.18 8.74L121.18 8.29L120.72 8.29L118.12 8.29L117.67 8.29L117.67 8.74L117.67 13.6L114.57 13.6L114.11 13.6L114.11 14.05L114.11 16.25L114.11 16.71L114.57 16.71L117.67 16.71L117.67 27.68C117.67 31.28 119.53 33.23 122.96 33.23C123.56 33.23 124.07 33.19 124.51 33.13C124.77 33.1 124.96 33.06 125.06 33.03L125.4 32.94L125.4 32.59L125.4 30.24L125.4 29.68L124.84 29.8C124.82 29.8 124.77 29.81 124.71 29.82C124.6 29.84 124.48 29.86 124.35 29.88C124.02 29.93 123.69 29.96 123.38 29.97C123.35 29.97 123.32 29.97 123.29 29.97C121.79 29.97 121.18 29.26 121.18 27.5L121.18 16.71L125.01 16.71ZM135.94 33.6C140.81 33.6 144.25 30.52 145.11 26.16L145.22 25.61L144.66 25.61L142.02 25.61L141.67 25.61L141.58 25.95C140.84 28.73 138.84 30.34 135.94 30.34C132.34 30.34 129.85 27.49 129.85 23.39C129.85 19.27 132.33 16.42 135.94 16.42C138.84 16.42 140.84 18.02 141.58 20.8L141.67 21.14L142.02 21.14L144.66 21.14L145.22 21.14L145.11 20.6C144.25 16.24 140.81 13.16 135.94 13.16C130.29 13.16 126.29 17.7 126.29 23.39C126.29 29.06 130.3 33.6 135.94 33.6ZM151.69 5.23L151.69 4.77L151.24 4.77L148.64 4.77L148.18 4.77L148.18 5.23L148.18 32.7L148.18 33.16L148.64 33.16L151.24 33.16L151.69 33.16L151.69 32.7L151.69 21.67C151.69 18.31 153.74 16.34 156.84 16.34C159.8 16.34 161.29 18.06 161.29 21.31L161.29 32.7L161.29 33.16L161.75 33.16L164.35 33.16L164.81 33.16L164.81 32.7L164.81 20.79C164.81 16.21 161.97 13.16 157.28 13.16C154.87 13.16 152.93 14.04 151.69 15.31L151.69 5.23Z" fill="#FFFFFF" fill-opacity="1.000000" fill-rule="evenodd"/>
	<path id="Element" d="M9.11 1.23L9.11 1.23L9.11 1.23L12.98 0.82L20.88 0L20.88 0L20.88 0L32.66 1.23L32.66 1.23L41.77 13.37L20.89 37.49L20.88 37.5L20.88 37.49L20.88 37.5L0 13.37L9.11 1.23Z" fill="#FFFFFF" fill-opacity="1.000000" fill-rule="evenodd"/>
</svg>
