<svg width="13.753906" height="13.220459" viewBox="0 0 13.7539 13.2205" fill="none" xmlns="http://www.w3.org/2000/svg" xmlns:xlink="http://www.w3.org/1999/xlink">
	<desc>
			Created with Pixso.
	</desc>
	<defs/>
	<g opacity="0.200000">
		<path id="Vector" d="M11.12 4.75C11.12 7.09 9.22 9 6.87 9C4.52 9 2.62 7.09 2.62 4.75C2.62 2.4 4.52 0.5 6.87 0.5C9.22 0.5 11.12 2.4 11.12 4.75Z" fill="#003BA4" fill-opacity="1.000000" fill-rule="evenodd"/>
	</g>
	<path id="Vector (Граница)" d="M5.84 9.38C6.17 9.46 6.52 9.5 6.87 9.5C7.22 9.5 7.57 9.46 7.91 9.38C8.18 9.32 8.45 9.23 8.72 9.12C8.99 9.01 9.24 8.87 9.48 8.71C9.75 8.54 10 8.33 10.23 8.1C10.46 7.87 10.67 7.62 10.84 7.36C11 7.12 11.14 6.86 11.25 6.59C11.36 6.33 11.45 6.06 11.51 5.78C11.58 5.44 11.62 5.1 11.62 4.75C11.62 4.39 11.58 4.05 11.51 3.71C11.45 3.43 11.36 3.16 11.25 2.9C11.14 2.63 11 2.37 10.84 2.13C10.67 1.87 10.46 1.62 10.23 1.39C10 1.16 9.75 0.95 9.48 0.78C9.24 0.62 8.99 0.48 8.72 0.37C8.45 0.26 8.18 0.17 7.91 0.11C7.57 0.03 7.22 0 6.87 0C6.52 0 6.17 0.03 5.84 0.11C5.56 0.17 5.29 0.26 5.02 0.37C4.75 0.48 4.5 0.62 4.26 0.78C3.99 0.95 3.74 1.16 3.51 1.39C3.28 1.62 3.08 1.87 2.9 2.13C2.74 2.37 2.61 2.63 2.5 2.9C2.38 3.16 2.3 3.43 2.23 3.71C2.16 4.05 2.12 4.39 2.12 4.75C2.12 5.1 2.16 5.44 2.23 5.78C2.3 6.06 2.38 6.33 2.5 6.59C2.61 6.86 2.74 7.12 2.9 7.36C3.08 7.62 3.28 7.87 3.51 8.1C3.74 8.33 3.99 8.54 4.26 8.71C4.5 8.87 4.75 9.01 5.02 9.12C5.29 9.23 5.56 9.32 5.84 9.38ZM7.71 8.4C7.44 8.46 7.16 8.5 6.87 8.5C6.59 8.5 6.31 8.46 6.04 8.4C5.82 8.35 5.62 8.29 5.41 8.2C5.2 8.11 5.01 8.01 4.82 7.89C4.61 7.74 4.41 7.58 4.22 7.4C4.04 7.21 3.87 7.01 3.73 6.8C3.61 6.61 3.5 6.41 3.42 6.2C3.33 6 3.26 5.79 3.21 5.58C3.15 5.31 3.12 5.03 3.12 4.75C3.12 4.46 3.15 4.18 3.21 3.91C3.26 3.7 3.33 3.49 3.42 3.29C3.5 3.08 3.61 2.88 3.73 2.69C3.87 2.48 4.04 2.28 4.22 2.09C4.41 1.91 4.61 1.75 4.82 1.6C5.01 1.48 5.2 1.38 5.41 1.29C5.62 1.2 5.82 1.14 6.04 1.09C6.31 1.03 6.59 1 6.87 1C7.16 1 7.44 1.03 7.71 1.09C7.92 1.14 8.13 1.2 8.33 1.29C8.54 1.38 8.74 1.48 8.92 1.6C9.14 1.75 9.34 1.91 9.52 2.09C9.71 2.28 9.87 2.48 10.01 2.69C10.13 2.88 10.24 3.08 10.33 3.29C10.41 3.49 10.48 3.7 10.53 3.91C10.59 4.18 10.62 4.46 10.62 4.75C10.62 5.03 10.59 5.31 10.53 5.58C10.48 5.79 10.41 6 10.33 6.2C10.24 6.41 10.13 6.61 10.01 6.8C9.87 7.01 9.71 7.21 9.52 7.4C9.34 7.58 9.14 7.74 8.92 7.89C8.74 8.01 8.54 8.11 8.33 8.2C8.13 8.29 7.92 8.35 7.71 8.4Z" fill="#003BA4" fill-opacity="1.000000" fill-rule="evenodd"/>
	<path id="Vector (Граница)" d="M0.83 11.35C0.55 11.7 0.29 12.07 0.06 12.46C-0.08 12.71 0 13.01 0.25 13.15C0.49 13.29 0.79 13.21 0.93 12.96C1.14 12.61 1.37 12.27 1.63 11.96C1.75 11.82 1.88 11.68 2.01 11.54C2.29 11.25 2.6 10.98 2.93 10.75C3.08 10.64 3.23 10.54 3.39 10.45C3.68 10.28 3.97 10.13 4.27 10.01C4.52 9.9 4.77 9.82 5.03 9.75C5.17 9.7 5.32 9.67 5.46 9.64C5.92 9.54 6.39 9.5 6.87 9.5C7.35 9.5 7.82 9.54 8.28 9.64C8.43 9.67 8.57 9.7 8.71 9.75C8.97 9.82 9.22 9.9 9.47 10.01C9.77 10.13 10.07 10.28 10.35 10.45C10.51 10.54 10.66 10.64 10.81 10.75C11.14 10.98 11.45 11.25 11.74 11.54C11.87 11.68 11.99 11.82 12.11 11.96C12.37 12.27 12.61 12.61 12.81 12.96C12.95 13.21 13.25 13.29 13.5 13.15C13.74 13.01 13.82 12.71 13.68 12.46C13.45 12.07 13.19 11.7 12.91 11.35C12.76 11.18 12.61 11.01 12.45 10.85C12.13 10.52 11.79 10.23 11.43 9.96C11.25 9.83 11.06 9.71 10.87 9.59C10.54 9.4 10.21 9.23 9.86 9.09C9.58 8.97 9.28 8.87 8.98 8.78C8.8 8.73 8.61 8.68 8.42 8.65C7.91 8.55 7.4 8.5 6.87 8.5C6.35 8.5 5.83 8.55 5.33 8.65C5.14 8.68 4.95 8.73 4.76 8.78C4.46 8.87 4.17 8.97 3.88 9.09C3.54 9.23 3.2 9.4 2.88 9.59C2.68 9.71 2.5 9.83 2.32 9.96C1.95 10.23 1.61 10.52 1.29 10.85C1.13 11.01 0.98 11.18 0.83 11.35Z" fill="#003BA4" fill-opacity="1.000000" fill-rule="evenodd"/>
</svg>
