<svg width="12.687500" height="13.750000" viewBox="0 0 12.6875 13.75" fill="none" xmlns="http://www.w3.org/2000/svg" xmlns:xlink="http://www.w3.org/1999/xlink">
	<desc>
			Created with Pixso.
	</desc>
	<defs/>
	<g opacity="0.200000">
		<path id="Vector" d="M0.5 4.75L12.18 4.75L12.18 2.09C12.18 1.95 12.13 1.81 12.03 1.71C11.93 1.61 11.79 1.56 11.65 1.56L1.03 1.56C0.89 1.56 0.75 1.61 0.65 1.71C0.55 1.81 0.5 1.95 0.5 2.09L0.5 4.75Z" fill="#003BA4" fill-opacity="1.000000" fill-rule="nonzero"/>
	</g>
	<path id="Vector (Граница)" d="M11.87 1.08C11.8 1.07 11.73 1.06 11.65 1.06L1.03 1.06C0.95 1.06 0.88 1.07 0.81 1.08C0.75 1.09 0.68 1.11 0.62 1.14C0.56 1.16 0.51 1.19 0.46 1.23C0.4 1.27 0.35 1.31 0.3 1.36C0.25 1.41 0.2 1.46 0.17 1.52C0.13 1.57 0.1 1.63 0.08 1.69C0.05 1.75 0.03 1.81 0.02 1.87C0 1.94 0 2.02 0 2.09L0 12.71C0 12.79 0 12.86 0.02 12.93C0.03 12.99 0.05 13.05 0.08 13.12C0.1 13.18 0.13 13.23 0.17 13.28C0.2 13.34 0.25 13.39 0.3 13.44C0.35 13.49 0.4 13.54 0.46 13.57C0.51 13.61 0.56 13.64 0.62 13.66C0.68 13.69 0.75 13.71 0.81 13.72C0.88 13.74 0.95 13.75 1.03 13.75L11.65 13.75C11.73 13.75 11.8 13.74 11.87 13.72C11.93 13.71 11.99 13.69 12.05 13.66C12.11 13.64 12.17 13.61 12.22 13.57C12.28 13.54 12.33 13.49 12.38 13.44C12.43 13.39 12.47 13.34 12.51 13.28C12.55 13.23 12.58 13.18 12.6 13.12C12.63 13.05 12.65 12.99 12.66 12.93C12.68 12.86 12.68 12.79 12.68 12.71L12.68 2.09C12.68 2.02 12.68 1.94 12.66 1.87C12.65 1.81 12.63 1.75 12.6 1.69C12.58 1.63 12.55 1.57 12.51 1.52C12.47 1.46 12.43 1.41 12.38 1.36C12.33 1.31 12.28 1.27 12.22 1.23C12.17 1.19 12.11 1.16 12.05 1.14C11.99 1.11 11.93 1.09 11.87 1.08ZM1.03 2.06L11.65 2.06L11.68 12.71L1.03 12.75L1.03 2.06Z" fill="#003BA4" fill-opacity="1.000000" fill-rule="evenodd"/>
	<path id="Vector (Граница)" d="M10.03 0.5C10.03 0.21 9.81 0 9.53 0C9.25 0 9.03 0.21 9.03 0.5L9.03 2.62C9.03 2.9 9.25 3.12 9.53 3.12C9.81 3.12 10.03 2.9 10.03 2.62L10.03 0.5Z" fill="#003BA4" fill-opacity="1.000000" fill-rule="evenodd"/>
	<path id="Vector (Граница)" d="M3.65 0.5C3.65 0.21 3.43 0 3.15 0C2.87 0 2.65 0.21 2.65 0.5L2.65 2.62C2.65 2.9 2.87 3.12 3.15 3.12C3.43 3.12 3.65 2.9 3.65 2.62L3.65 0.5Z" fill="#003BA4" fill-opacity="1.000000" fill-rule="evenodd"/>
	<path id="Vector (Граница)" d="M0.5 4.25C0.22 4.25 0 4.46 0 4.75C0 5.03 0.22 5.25 0.5 5.25L12.18 5.25C12.46 5.25 12.68 5.03 12.68 4.75C12.68 4.46 12.46 4.25 12.18 4.25L0.5 4.25Z" fill="#003BA4" fill-opacity="1.000000" fill-rule="evenodd"/>
</svg>
