<svg width="51.000000" height="37.000000" viewBox="0 0 51 37" fill="none" xmlns="http://www.w3.org/2000/svg" xmlns:xlink="http://www.w3.org/1999/xlink">
	<desc>
			Created with Pixso.
	</desc>
	<defs/>
	<g opacity="0.200000">
		<path id="Vector" d="M20.5 21.5L3.5 21.5C2.96 21.5 2.46 21.28 2.08 20.91C1.71 20.53 1.5 20.03 1.5 19.5L1.5 3.5C1.5 2.96 1.71 2.46 2.08 2.08C2.46 1.71 2.96 1.5 3.5 1.5L18.5 1.5C19.03 1.5 19.53 1.71 19.91 2.08C20.28 2.46 20.5 2.96 20.5 3.5L20.5 21.5Z" fill="#003BA4" fill-opacity="1.000000" fill-rule="nonzero"/>
	</g>
	<g opacity="0.200000">
		<path id="Vector" d="M49.5 21.5L32.5 21.5C31.96 21.5 31.46 21.28 31.08 20.91C30.71 20.53 30.5 20.03 30.5 19.5L30.5 3.5C30.5 2.96 30.71 2.46 31.08 2.08C31.46 1.71 31.96 1.5 32.5 1.5L47.5 1.5C48.03 1.5 48.53 1.71 48.91 2.08C49.28 2.46 49.5 2.96 49.5 3.5L49.5 21.5Z" fill="#003BA4" fill-opacity="1.000000" fill-rule="nonzero"/>
	</g>
	<path id="Vector (Граница)" d="M22 21.5L22 3.5C22 3.26 21.97 3.04 21.93 2.81C21.88 2.59 21.82 2.37 21.73 2.16C21.64 1.94 21.53 1.74 21.41 1.55C21.28 1.36 21.13 1.18 20.97 1.02C20.81 0.86 20.63 0.71 20.44 0.58C20.25 0.46 20.05 0.35 19.83 0.26C19.62 0.17 19.4 0.11 19.18 0.06C18.95 0.02 18.73 0 18.5 0L3.5 0C3.26 0 3.04 0.02 2.81 0.06C2.59 0.11 2.37 0.17 2.16 0.26C1.94 0.35 1.74 0.46 1.55 0.58C1.36 0.71 1.18 0.86 1.02 1.02C0.86 1.18 0.71 1.36 0.58 1.55C0.46 1.74 0.35 1.94 0.26 2.16C0.17 2.37 0.11 2.59 0.06 2.81C0.02 3.04 0 3.26 0 3.5L0 19.5C0 19.73 0.02 19.95 0.06 20.18C0.11 20.4 0.17 20.62 0.26 20.83C0.35 21.05 0.46 21.25 0.58 21.44C0.71 21.63 0.86 21.81 1.02 21.97C1.18 22.13 1.36 22.28 1.55 22.41C1.74 22.53 1.94 22.64 2.16 22.73C2.37 22.82 2.59 22.88 2.81 22.93C3.04 22.97 3.26 23 3.5 23L19 23L19 25.5C19 26.06 18.94 26.61 18.83 27.15C18.73 27.7 18.56 28.23 18.35 28.75C18.13 29.27 17.87 29.76 17.56 30.22C17.26 30.68 16.9 31.11 16.51 31.51C16.11 31.9 15.68 32.26 15.22 32.56C14.76 32.87 14.27 33.13 13.75 33.35C13.23 33.56 12.7 33.73 12.15 33.83C11.61 33.94 11.06 34 10.5 34C9.66 34 9 34.66 9 35.5C9 36.34 9.66 37 10.5 37C11.26 37 12.01 36.92 12.74 36.78C13.47 36.63 14.19 36.41 14.9 36.12C15.6 35.83 16.26 35.47 16.89 35.06C17.51 34.64 18.09 34.17 18.63 33.63C19.17 33.09 19.64 32.51 20.06 31.89C20.47 31.26 20.83 30.6 21.12 29.9C21.41 29.19 21.63 28.47 21.78 27.74C21.92 27.01 22 26.26 22 25.5L22 21.5ZM19 20L19 3.5C19 3.43 18.98 3.36 18.96 3.3C18.93 3.24 18.9 3.19 18.85 3.14C18.8 3.09 18.75 3.06 18.69 3.03C18.63 3.01 18.56 3 18.5 3L3.5 3C3.43 3 3.36 3.01 3.3 3.03C3.24 3.06 3.19 3.09 3.14 3.14C3.09 3.19 3.06 3.24 3.03 3.3C3.01 3.36 3 3.43 3 3.5L3 19.5C3 19.56 3.01 19.63 3.03 19.69C3.06 19.75 3.09 19.8 3.14 19.85C3.19 19.9 3.24 19.93 3.3 19.96C3.36 19.98 3.43 20 3.5 20L19 20Z" fill="#003BA4" fill-opacity="1.000000" fill-rule="evenodd"/>
	<path id="Vector (Граница)" d="M51 21.5L51 3.5C51 3.26 50.97 3.04 50.93 2.81C50.88 2.59 50.82 2.37 50.73 2.16C50.64 1.94 50.53 1.74 50.41 1.55C50.28 1.36 50.13 1.18 49.97 1.02C49.81 0.86 49.63 0.71 49.44 0.58C49.25 0.46 49.05 0.35 48.83 0.26C48.62 0.17 48.4 0.11 48.18 0.06C47.96 0.02 47.73 0 47.5 0L32.5 0C32.26 0 32.04 0.02 31.81 0.06C31.59 0.11 31.37 0.17 31.16 0.26C30.94 0.35 30.74 0.46 30.55 0.58C30.36 0.71 30.18 0.86 30.02 1.02C29.86 1.18 29.71 1.36 29.58 1.55C29.46 1.74 29.35 1.94 29.26 2.16C29.17 2.37 29.11 2.59 29.06 2.81C29.02 3.04 29 3.26 29 3.5L29 19.5C29 19.73 29.02 19.95 29.06 20.18C29.11 20.4 29.17 20.62 29.26 20.83C29.35 21.05 29.46 21.25 29.58 21.44C29.71 21.63 29.86 21.81 30.02 21.97C30.18 22.13 30.36 22.28 30.55 22.41C30.74 22.53 30.94 22.64 31.16 22.73C31.37 22.82 31.59 22.88 31.81 22.93C32.04 22.97 32.26 23 32.5 23L48 23L48 25.5C48 26.06 47.94 26.61 47.83 27.15C47.73 27.7 47.56 28.23 47.35 28.75C47.13 29.27 46.87 29.76 46.56 30.22C46.26 30.68 45.9 31.11 45.51 31.51C45.11 31.9 44.68 32.26 44.22 32.56C43.76 32.87 43.27 33.13 42.75 33.35C42.23 33.56 41.7 33.73 41.15 33.83C40.61 33.94 40.06 34 39.5 34C38.66 34 38 34.66 38 35.5C38 36.34 38.66 37 39.5 37C40.26 37 41.01 36.92 41.74 36.78C42.47 36.63 43.19 36.41 43.9 36.12C44.6 35.83 45.26 35.47 45.89 35.06C46.51 34.64 47.09 34.17 47.63 33.63C48.17 33.09 48.64 32.51 49.06 31.89C49.47 31.26 49.83 30.6 50.12 29.9C50.41 29.19 50.63 28.47 50.78 27.74C50.92 27.01 51 26.26 51 25.5L51 21.5ZM48 20L48 3.5C48 3.43 47.98 3.36 47.96 3.3C47.93 3.24 47.9 3.19 47.85 3.14C47.8 3.09 47.75 3.06 47.69 3.03C47.63 3.01 47.56 3 47.5 3L32.5 3C32.43 3 32.36 3.01 32.3 3.03C32.24 3.06 32.19 3.09 32.14 3.14C32.09 3.19 32.06 3.24 32.03 3.3C32.01 3.36 32 3.43 32 3.5L32 19.5C32 19.56 32.01 19.63 32.03 19.69C32.06 19.75 32.09 19.8 32.14 19.85C32.19 19.9 32.24 19.93 32.3 19.96C32.36 19.98 32.43 20 32.5 20L48 20Z" fill="#003BA4" fill-opacity="1.000000" fill-rule="evenodd"/>
</svg>
