<svg width="83.251953" height="73.875244" viewBox="0 0 83.252 73.8752" fill="none" xmlns="http://www.w3.org/2000/svg" xmlns:xlink="http://www.w3.org/1999/xlink">
	<desc>
			Created with Pixso.
	</desc>
	<defs/>
	<g opacity="0.200000">
		<path id="Vector" d="M59.34 36.56C69.89 27.33 82.25 13.81 82.25 1C69.43 1 55.91 13.35 46.7 23.9C52 26.88 56.37 31.26 59.34 36.56Z" fill="#003BA4" fill-opacity="1.000000" fill-rule="nonzero"/>
	</g>
	<path id="Vector (Граница)" d="M1 73.87L30.68 73.87C32.84 73.87 34.9 73.57 36.88 72.97C38.85 72.37 40.73 71.48 42.53 70.28C44.32 69.08 45.87 67.69 47.18 66.09C48.48 64.5 49.55 62.7 50.37 60.71C51.2 58.72 51.71 56.7 51.92 54.65C52.12 52.6 52.01 50.51 51.59 48.4C51.17 46.29 50.47 44.32 49.5 42.5C48.53 40.68 47.28 39.01 45.75 37.49C44.23 35.96 42.56 34.72 40.74 33.74C38.92 32.77 36.96 32.08 34.84 31.65C32.73 31.23 30.65 31.13 28.59 31.33C26.54 31.53 24.52 32.04 22.53 32.87C20.54 33.69 18.75 34.76 17.15 36.07C15.56 37.38 14.16 38.93 12.96 40.72C11.77 42.51 10.87 44.39 10.27 46.37C9.67 48.34 9.37 50.4 9.37 52.56C9.37 56.61 8.6 60.31 7.05 63.65C6.44 64.96 5.71 66.21 4.87 67.41C3.38 69.52 1.9 71.07 0.44 72.04C0.21 72.19 0.07 72.4 0.02 72.67C-0.04 72.94 0.01 73.2 0.17 73.42C0.26 73.56 0.38 73.67 0.53 73.75C0.67 73.83 0.83 73.87 1 73.87ZM36.3 71.06C34.51 71.6 32.64 71.87 30.68 71.87L3.76 71.87C4.68 70.95 5.59 69.85 6.5 68.56C7.47 67.2 8.29 65.76 8.97 64.27C10.57 60.73 11.37 56.82 11.37 52.56C11.37 50.6 11.64 48.73 12.19 46.95C12.73 45.16 13.54 43.45 14.63 41.83C15.71 40.2 16.98 38.8 18.42 37.61C19.87 36.43 21.49 35.46 23.29 34.72C25.1 33.97 26.93 33.5 28.79 33.32C30.65 33.14 32.54 33.24 34.45 33.62C36.37 34 38.15 34.63 39.8 35.51C41.45 36.39 42.96 37.52 44.34 38.9C45.72 40.28 46.85 41.8 47.73 43.45C48.61 45.09 49.25 46.87 49.63 48.79C50.01 50.71 50.11 52.59 49.92 54.45C49.74 56.31 49.27 58.14 48.53 59.95C47.78 61.75 46.81 63.38 45.63 64.82C44.44 66.27 43.04 67.53 41.41 68.62C39.79 69.7 38.08 70.51 36.3 71.06Z" fill="#003BA4" fill-opacity="1.000000" fill-rule="evenodd"/>
	<path id="Vector (Граница)" d="M56.07 12.9C49.94 18.38 43.87 25.17 37.85 33.27C37.52 33.72 37.61 34.34 38.06 34.67C38.51 35.01 39.13 34.92 39.46 34.47C45.39 26.47 51.37 19.78 57.4 14.39C66.22 6.51 74.16 2.39 81.22 2.02C80.85 9.08 76.73 17.02 68.85 25.84C63.46 31.87 56.77 37.85 48.78 43.78C48.33 44.12 48.24 44.73 48.57 45.18C48.9 45.63 49.52 45.72 49.97 45.39C58.07 39.38 64.87 33.3 70.34 27.17C78.95 17.54 83.25 8.82 83.25 1C83.25 0.72 83.15 0.48 82.95 0.29C82.76 0.09 82.52 0 82.25 0C74.43 0 65.7 4.3 56.07 12.9Z" fill="#003BA4" fill-opacity="1.000000" fill-rule="evenodd"/>
	<path id="Vector (Граница)" d="M47.19 23.03C46.7 22.76 46.1 22.92 45.83 23.41C45.55 23.9 45.72 24.5 46.21 24.77C47.5 25.49 48.72 26.29 49.89 27.18C51.05 28.06 52.16 29.02 53.2 30.06C54.24 31.1 55.2 32.21 56.09 33.37C56.97 34.54 57.77 35.76 58.49 37.05C58.76 37.54 59.36 37.71 59.85 37.43C60.34 37.16 60.51 36.56 60.23 36.07C59.47 34.71 58.62 33.4 57.68 32.17C56.74 30.93 55.72 29.76 54.61 28.65C53.51 27.54 52.33 26.52 51.1 25.58C49.86 24.64 48.56 23.79 47.19 23.03Z" fill="#003BA4" fill-opacity="1.000000" fill-rule="evenodd"/>
</svg>
