<svg width="77.000000" height="77.000000" viewBox="0 0 77 77" fill="none" xmlns="http://www.w3.org/2000/svg" xmlns:xlink="http://www.w3.org/1999/xlink">
	<desc>
			Created with Pixso.
	</desc>
	<defs/>
	<g opacity="0.200000">
		<path id="Vector" d="M51.27 43.28C50.9 43.06 50.49 42.91 50.05 42.85L41.14 41.65C40.47 41.56 39.79 41.69 39.2 42.01C38.61 42.34 38.14 42.85 37.87 43.47L32.52 55.48C32.27 56.04 32.19 56.66 32.29 57.26C32.39 57.86 32.66 58.43 33.08 58.87L40.79 66.82C41.12 67.17 41.37 67.61 41.5 68.08C41.64 68.55 41.66 69.05 41.57 69.53L40.33 75.95C46.86 75.63 53.2 73.61 58.71 70.09C64.22 66.57 68.71 61.67 71.74 55.87L51.27 43.28Z" fill="#003BA4" fill-opacity="1.000000" fill-rule="nonzero"/>
	</g>
	<path id="Vector (Граница)" d="M23.72 74.18C28.25 76.06 33.18 77 38.5 77C43.81 77 48.74 76.06 53.27 74.18C57.81 72.3 61.96 69.48 65.72 65.72C69.48 61.96 72.3 57.81 74.18 53.27C76.06 48.74 77 43.81 77 38.5C77 33.18 76.06 28.25 74.18 23.72C72.3 19.18 69.48 15.03 65.72 11.27C61.96 7.51 57.81 4.69 53.27 2.81C48.74 0.93 43.81 0 38.5 0C33.18 0 28.25 0.93 23.72 2.81C19.18 4.69 15.03 7.51 11.27 11.27C7.51 15.03 4.69 19.18 2.81 23.72C0.93 28.25 0 33.18 0 38.5C0 43.81 0.93 48.74 2.81 53.27C4.69 57.81 7.51 61.96 11.27 65.72C15.03 69.48 19.18 72.3 23.72 74.18ZM52.51 72.32C48.21 74.1 43.53 75 38.5 75C33.46 75 28.78 74.1 24.48 72.32C20.18 70.54 16.25 67.87 12.69 64.3C9.12 60.74 6.45 56.81 4.67 52.51C2.89 48.21 2 43.53 2 38.5C2 33.46 2.89 28.78 4.67 24.48C6.45 20.18 9.12 16.25 12.69 12.69C16.25 9.12 20.18 6.45 24.48 4.67C28.79 2.89 33.46 2 38.5 2C43.53 2 48.21 2.89 52.51 4.67C56.81 6.45 60.74 9.12 64.3 12.69C67.87 16.25 70.54 20.18 72.32 24.48C74.1 28.78 75 33.46 75 38.5C75 43.53 74.1 48.21 72.32 52.51C70.54 56.81 67.87 60.74 64.3 64.3C60.74 67.87 56.81 70.54 52.51 72.32Z" fill="#003BA4" fill-opacity="1.000000" fill-rule="evenodd"/>
	<path id="Vector (Граница)" d="M47.38 1.36C47.1 0.87 46.5 0.7 46.02 0.98C45.53 1.25 45.36 1.85 45.63 2.34L49.73 9.69C49.85 9.9 49.94 10.13 49.98 10.36C50.02 10.59 50.02 10.82 49.98 11.07C49.94 11.32 49.86 11.55 49.75 11.76C49.64 11.96 49.49 12.14 49.31 12.3L38.78 21.82C38.67 21.92 38.54 22.01 38.4 22.09L33.6 24.73C33.44 24.82 33.28 24.88 33.12 24.93C32.94 24.97 32.76 25 32.58 24.99L26.05 24.99C25.68 24.99 25.33 25.04 24.98 25.13C24.64 25.22 24.3 25.36 23.99 25.55C23.67 25.73 23.39 25.94 23.14 26.18C22.89 26.44 22.66 26.73 22.47 27.06L17.27 36.15C16.99 36.63 17.15 37.23 17.64 37.51C18.12 37.79 18.73 37.63 19 37.14L24.21 28.05C24.3 27.9 24.4 27.76 24.52 27.63C24.66 27.5 24.81 27.38 24.98 27.28C25.15 27.18 25.32 27.11 25.5 27.07C25.67 27.02 25.86 26.99 26.05 26.99L32.58 26.99C32.93 27 33.27 26.95 33.6 26.87C33.93 26.78 34.26 26.65 34.57 26.48L39.37 23.84C39.43 23.81 39.49 23.77 39.55 23.74C39.76 23.61 39.96 23.45 40.15 23.28L50.65 13.78C51.01 13.46 51.3 13.09 51.52 12.69C51.73 12.29 51.88 11.86 51.95 11.39C52.03 10.91 52.03 10.45 51.95 10.01C51.87 9.56 51.71 9.13 51.48 8.71L47.38 1.36Z" fill="#003BA4" fill-opacity="1.000000" fill-rule="evenodd"/>
	<path id="Vector (Граница)" d="M15.89 9.68L11.29 20.56C11.18 20.82 11.12 21.08 11.12 21.34C11.11 21.6 11.16 21.86 11.26 22.13L15.75 34.11C15.81 34.27 15.89 34.42 15.99 34.56C16.09 34.71 16.21 34.85 16.35 34.97C16.49 35.09 16.64 35.18 16.79 35.26C16.95 35.34 17.12 35.4 17.29 35.44L25.67 37.24C25.97 37.3 26.27 37.4 26.55 37.53C26.83 37.66 27.09 37.83 27.35 38.02C27.6 38.22 27.82 38.44 28.01 38.68C28.21 38.92 28.37 39.18 28.51 39.47L30 42.54C30.08 42.72 30.19 42.89 30.32 43.03C30.45 43.18 30.6 43.31 30.78 43.42C30.95 43.53 31.13 43.61 31.32 43.66C31.51 43.71 31.71 43.74 31.91 43.74L37.3 43.74C37.86 43.74 38.3 44.18 38.3 44.74C38.3 45.3 37.86 45.74 37.3 45.74L31.91 45.74C31.51 45.74 31.13 45.69 30.77 45.58C30.4 45.48 30.05 45.32 29.72 45.11C29.39 44.9 29.09 44.66 28.84 44.38C28.59 44.1 28.37 43.77 28.2 43.41L26.71 40.34C26.64 40.19 26.56 40.06 26.46 39.93C26.35 39.81 26.24 39.7 26.11 39.6C25.98 39.5 25.85 39.41 25.71 39.35C25.56 39.28 25.41 39.23 25.25 39.19L16.87 37.39C16.53 37.32 16.21 37.21 15.9 37.05C15.6 36.9 15.31 36.71 15.05 36.48C14.79 36.26 14.56 36.01 14.37 35.73C14.17 35.45 14 35.14 13.88 34.81L9.39 22.83C9.19 22.32 9.1 21.81 9.11 21.3C9.12 20.79 9.24 20.28 9.45 19.78L14.05 8.9C14.27 8.38 14.85 8.15 15.36 8.37C15.88 8.59 16.11 9.16 15.89 9.68Z" fill="#003BA4" fill-opacity="1.000000" fill-rule="evenodd"/>
	<g opacity="0.200000">
		<path id="Vector" d="M18.14 36.64L23.34 27.56C23.61 27.08 24.01 26.69 24.48 26.41C24.96 26.14 25.5 25.99 26.05 26L32.58 26C33.1 26 33.62 25.86 34.08 25.6L38.89 22.96C39.1 22.85 39.29 22.71 39.47 22.55L49.98 13.04C50.51 12.57 50.85 11.93 50.97 11.23C51.08 10.53 50.95 9.81 50.6 9.2L46.5 1.85C43.87 1.28 41.19 0.99 38.5 1C29.93 0.98 21.63 3.91 14.97 9.29L10.37 20.17C10.06 20.9 10.04 21.73 10.32 22.48L14.82 34.46C15 34.95 15.3 35.38 15.7 35.73C16.1 36.07 16.57 36.3 17.08 36.41L18.14 36.64Z" fill="#003BA4" fill-opacity="1.000000" fill-rule="nonzero"/>
	</g>
	<path id="Vector (Граница)" d="M50.75 44.14L71.21 56.72C71.69 57.02 72.29 56.87 72.59 56.39C72.88 55.92 72.73 55.31 72.26 55.02L51.8 42.43C51.53 42.27 51.26 42.14 50.98 42.05C50.72 41.96 50.46 41.9 50.19 41.86L41.27 40.66C40.82 40.59 40.38 40.6 39.95 40.68C39.53 40.77 39.11 40.92 38.71 41.14C38.31 41.36 37.97 41.64 37.67 41.96C37.38 42.28 37.14 42.65 36.95 43.06L31.6 55.07C31.43 55.45 31.32 55.84 31.27 56.23C31.22 56.62 31.23 57.02 31.3 57.42C31.37 57.83 31.49 58.21 31.66 58.57C31.84 58.92 32.06 59.25 32.34 59.55L40.07 67.51C40.14 67.58 40.2 67.66 40.25 67.74C40.38 67.92 40.48 68.13 40.54 68.36C40.59 68.52 40.62 68.68 40.62 68.85C40.63 69.01 40.62 69.18 40.59 69.34L39.35 75.76C39.24 76.31 39.59 76.83 40.14 76.93C40.69 77.04 41.21 76.69 41.31 76.14L42.55 69.72C42.61 69.39 42.64 69.07 42.62 68.75C42.61 68.44 42.55 68.12 42.46 67.8C42.39 67.55 42.3 67.31 42.18 67.08C42 66.73 41.78 66.41 41.51 66.12L33.8 58.19C33.66 58.03 33.55 57.87 33.46 57.69C33.37 57.5 33.31 57.31 33.27 57.1C33.24 56.89 33.23 56.68 33.26 56.48C33.29 56.28 33.34 56.08 33.43 55.89L38.78 43.88C38.88 43.66 39 43.47 39.15 43.31C39.3 43.14 39.48 43 39.69 42.89C39.89 42.77 40.1 42.7 40.32 42.65C40.54 42.61 40.77 42.61 41.01 42.64L49.92 43.84C50.08 43.86 50.24 43.9 50.39 43.96C50.52 44.01 50.63 44.07 50.75 44.14Z" fill="#003BA4" fill-opacity="1.000000" fill-rule="evenodd"/>
</svg>
