<svg width="52.000000" height="83.250000" viewBox="0 0 52 83.25" fill="none" xmlns="http://www.w3.org/2000/svg" xmlns:xlink="http://www.w3.org/1999/xlink">
	<desc>
			Created with Pixso.
	</desc>
	<defs/>
	<g opacity="0.200000">
		<path id="Vector" d="M1 13.5L51 13.5L51 69.75L1 69.75L1 13.5Z" fill="#003BA4" fill-opacity="1.000000" fill-rule="evenodd"/>
	</g>
	<path id="Vector (Граница)" d="M47.53 0.53C46.67 0.17 45.75 0 44.75 0L7.25 0C6.24 0 5.32 0.17 4.46 0.53C3.61 0.88 2.83 1.41 2.12 2.12C1.41 2.83 0.88 3.61 0.53 4.46C0.17 5.32 0 6.24 0 7.25L0 76C0 77 0.17 77.92 0.53 78.78C0.88 79.63 1.41 80.41 2.12 81.12C2.83 81.83 3.61 82.36 4.46 82.71C5.32 83.07 6.24 83.25 7.25 83.25L44.75 83.25C45.75 83.25 46.67 83.07 47.53 82.71C48.38 82.36 49.16 81.83 49.87 81.12C50.58 80.41 51.11 79.63 51.46 78.78C51.82 77.92 52 77 52 76L52 7.25C52 6.24 51.82 5.32 51.46 4.46C51.11 3.61 50.58 2.83 49.87 2.12C49.16 1.41 48.38 0.88 47.53 0.53ZM7.25 2L44.75 2C45.47 2 46.14 2.12 46.76 2.38C47.38 2.64 47.94 3.02 48.46 3.53C48.97 4.05 49.35 4.61 49.61 5.23C49.87 5.85 50 6.52 50 7.25L50 76C50 76.72 49.87 77.39 49.61 78.01C49.35 78.63 48.97 79.19 48.46 79.71C47.94 80.22 47.38 80.6 46.76 80.86C46.14 81.12 45.47 81.25 44.75 81.25L7.25 81.25C6.52 81.25 5.85 81.12 5.23 80.86C4.61 80.6 4.05 80.22 3.53 79.71C3.02 79.19 2.64 78.63 2.38 78.01C2.12 77.39 2 76.72 2 76L2 7.25C2 6.52 2.12 5.85 2.38 5.23C2.64 4.61 3.02 4.05 3.53 3.53C4.05 3.02 4.61 2.64 5.23 2.38C5.85 2.12 6.52 2 7.25 2Z" fill="#003BA4" fill-opacity="1.000000" fill-rule="evenodd"/>
	<path id="Vector (Граница)" d="M1 12.5L51 12.5C51.56 12.5 52 12.93 52 13.5C52 14.06 51.56 14.5 51 14.5L1 14.5C0.43 14.5 0 14.06 0 13.5C0 12.93 0.43 12.5 1 12.5Z" fill="#003BA4" fill-opacity="1.000000" fill-rule="evenodd"/>
	<path id="Vector (Граница)" d="M1 68.75L51 68.75C51.56 68.75 52 69.18 52 69.75C52 70.31 51.56 70.75 51 70.75L1 70.75C0.43 70.75 0 70.31 0 69.75C0 69.18 0.43 68.75 1 68.75Z" fill="#003BA4" fill-opacity="1.000000" fill-rule="evenodd"/>
</svg>
