<svg width="83.250000" height="58.250000" viewBox="0 0 83.25 58.25" fill="none" xmlns="http://www.w3.org/2000/svg" xmlns:xlink="http://www.w3.org/1999/xlink">
	<desc>
			Created with Pixso.
	</desc>
	<defs/>
	<g opacity="0.200000">
		<path id="Vector" d="M1 16.62L82.25 16.62L82.25 54.12C82.25 54.95 81.92 55.74 81.33 56.33C80.74 56.92 79.95 57.25 79.12 57.25L4.12 57.25C3.29 57.25 2.5 56.92 1.91 56.33C1.32 55.74 1 54.95 1 54.12L1 16.62Z" fill="#003BA4" fill-opacity="1.000000" fill-rule="nonzero"/>
	</g>
	<path id="Vector (Граница)" d="M80.7 0.3C80.22 0.1 79.69 0 79.12 0L4.12 0C3.55 0 3.02 0.1 2.54 0.3C2.05 0.5 1.61 0.8 1.2 1.2C0.8 1.61 0.5 2.05 0.3 2.54C0.1 3.02 0 3.55 0 4.12L0 54.12C0 54.69 0.1 55.22 0.3 55.7C0.5 56.19 0.8 56.63 1.2 57.04C1.61 57.44 2.05 57.74 2.54 57.94C3.02 58.14 3.55 58.25 4.12 58.25L79.12 58.25C79.69 58.25 80.22 58.14 80.7 57.94C81.19 57.74 81.63 57.44 82.04 57.04C82.44 56.63 82.74 56.19 82.94 55.7C83.14 55.22 83.25 54.69 83.25 54.12L83.25 4.12C83.25 3.55 83.14 3.02 82.94 2.54C82.74 2.05 82.44 1.61 82.04 1.2C81.63 0.8 81.19 0.5 80.7 0.3ZM4.12 2L79.12 2C79.83 2 80.36 2.17 80.71 2.53C81.07 2.88 81.25 3.41 81.25 4.12L81.25 54.12C81.25 54.83 81.07 55.36 80.71 55.71C80.36 56.07 79.83 56.25 79.12 56.25L4.12 56.25C3.83 56.25 3.55 56.19 3.3 56.09C3.05 55.99 2.83 55.83 2.62 55.62C2.41 55.42 2.25 55.19 2.15 54.94C2.05 54.69 2 54.41 2 54.12L2 4.12C2 3.83 2.05 3.55 2.15 3.3C2.25 3.05 2.41 2.82 2.62 2.62C2.83 2.41 3.05 2.25 3.3 2.15C3.55 2.05 3.83 2 4.12 2Z" fill="#003BA4" fill-opacity="1.000000" fill-rule="evenodd"/>
	<path id="Vector (Граница)" d="M57.25 43.75L69.75 43.75C70.31 43.75 70.75 44.18 70.75 44.75C70.75 45.31 70.31 45.75 69.75 45.75L57.25 45.75C56.68 45.75 56.25 45.31 56.25 44.75C56.25 44.18 56.68 43.75 57.25 43.75Z" fill="#003BA4" fill-opacity="1.000000" fill-rule="evenodd"/>
	<path id="Vector (Граница)" d="M38.5 43.75L44.75 43.75C45.31 43.75 45.75 44.18 45.75 44.75C45.75 45.31 45.31 45.75 44.75 45.75L38.5 45.75C37.93 45.75 37.5 45.31 37.5 44.75C37.5 44.18 37.93 43.75 38.5 43.75Z" fill="#003BA4" fill-opacity="1.000000" fill-rule="evenodd"/>
	<path id="Vector (Граница)" d="M1 15.62L82.25 15.62C82.81 15.62 83.25 16.06 83.25 16.62C83.25 17.18 82.81 17.62 82.25 17.62L1 17.62C0.43 17.62 0 17.18 0 16.62C0 16.06 0.43 15.62 1 15.62Z" fill="#003BA4" fill-opacity="1.000000" fill-rule="evenodd"/>
</svg>
